<?xml version="1.0" encoding="utf-8"?>
<!-- Generator: Adobe Illustrator 26.0.1, SVG Export Plug-In . SVG Version: 6.00 Build 0)  -->
<svg version="1.1" id="Layer_1" xmlns="http://www.w3.org/2000/svg" xmlns:xlink="http://www.w3.org/1999/xlink" x="0px" y="0px"
	 viewBox="0 0 300 300" style="enable-background:new 0 0 300 300;" xml:space="preserve">
<style type="text/css">
	.st0{fill:#FFFFFF;}
	.st1{fill:#6F62F1;}
</style>
<circle class="st0" cx="150" cy="150" r="150"/>
<path class="st1" d="M69.3,150.2c0-11.1-0.2-22.1,0.1-33c0.2-5.3,3.8-8.7,9.1-8.8c9.5-0.2,18.9-0.2,28.4-0.2c1.2,0,2.4,0,3.6,0
	c0.1-1.2,0.2-1.7,0.2-2.3c0-9.1-0.2-18.2-0.1-27.3c0-7.7,3.1-11.3,10.6-11.5c9.6-0.2,19.2,0,28.8-0.2c22.7-0.3,42.3,7,59.2,22.4
	c9.2,8.4,16.1,18.7,20.4,29.9c4.8,12.2-4.2,26.7-17.3,26.7h-10.3c-4.9,0-9.1-4.4-10.6-9c-5.4-16.6-21.1-27.9-40.2-27.9
	c-12,0-24.1,0-36.2-0.1c-2.7,0-3.7,0.7-3.6,3.5c0.2,9.3,0.1,18.7,0,28.1c0,5.1-3.1,9.6-7.8,9.6C92.2,150.4,80.9,150.2,69.3,150.2z"
	/>
<path class="st1" d="M212.4,154.2c13.1,0,22.2,14.5,17.3,26.7c-2.8,7.2-6.7,13.8-11.5,19.9c-15.8,20-36.5,31.4-62,32.1
	c-26.4,0.7-52.9,0.2-79.3,0.3c-2.4,0-4.9,0-7.7,0c0-10.1,0.2-19.7-0.1-29.2c-0.2-7.5,2.4-13.2,13.1-13c23.4,0.3,46.8,0.2,70.1,0.1
	c18.6-0.1,33.6-11.8,38.9-27.7c1.6-4.6,5.8-9,10.7-9L212.4,154.2z"/>
</svg>
