<?xml version="1.0" encoding="utf-8"?>
<!-- Generator: Adobe Illustrator 26.0.1, SVG Export Plug-In . SVG Version: 6.00 Build 0)  -->
<svg version="1.1" id="Layer_1" xmlns="http://www.w3.org/2000/svg" xmlns:xlink="http://www.w3.org/1999/xlink" x="0px" y="0px"
	 viewBox="0 0 100 100" style="enable-background:new 0 0 100 100;" xml:space="preserve">
<style type="text/css">
	.st0{fill:#FFFFFF;}
</style>
<g>
	<rect width="100" height="100"/>
	<path class="st0" d="M17.3,50.1c0-4.5-0.1-8.9,0-13.3c0.1-2.1,1.5-3.5,3.7-3.6c3.8-0.1,7.7-0.1,11.5-0.1c0.5,0,1,0,1.5,0
		c0-0.5,0.1-0.7,0.1-0.9c0-3.7-0.1-7.4,0-11c0-3.1,1.3-4.6,4.3-4.6c3.9-0.1,7.8,0,11.6-0.1c9.2-0.1,17.1,2.8,23.9,9.1
		c3.7,3.4,6.5,7.6,8.3,12.1c1.9,4.9-1.7,10.8-7,10.8H71c-2,0-3.7-1.8-4.3-3.6c-2.2-6.7-8.5-11.3-16.2-11.3c-4.9,0-9.8,0-14.6,0
		c-1.1,0-1.5,0.3-1.5,1.4c0.1,3.8,0,7.6,0,11.4c0,2.1-1.3,3.8-3.2,3.9C26.6,50.2,22,50.1,17.3,50.1z"/>
	<path class="st0" d="M75.2,51.7c5.3,0,9,5.9,7,10.8c-1.1,2.9-2.7,5.6-4.6,8c-6.4,8.1-14.8,12.7-25.1,13
		c-10.7,0.3-21.4,0.1-32.1,0.1c-1,0-2,0-3.1,0c0-4.1,0.1-8,0-11.8c-0.1-3,1-5.3,5.3-5.3c9.5,0.1,18.9,0.1,28.4,0
		c7.5,0,13.6-4.8,15.7-11.2c0.6-1.9,2.4-3.6,4.3-3.6L75.2,51.7z"/>
</g>
</svg>
