<?xml version="1.0" encoding="UTF-8" standalone="no" ?>
<!DOCTYPE svg PUBLIC "-//W3C//DTD SVG 1.1//EN" "http://www.w3.org/Graphics/SVG/1.1/DTD/svg11.dtd">
<svg xmlns="http://www.w3.org/2000/svg" xmlns:xlink="http://www.w3.org/1999/xlink" version="1.1" width="1080" height="1080" viewBox="0 0 1080 1080" xml:space="preserve">
<desc>Created with Fabric.js 5.2.4</desc>
<defs>
</defs>
<g transform="matrix(1 0 0 1 540 540)" id="267be633-a936-4b5a-aad2-747cfc1159a1"  >
<rect style="stroke: none; stroke-width: 1; stroke-dasharray: none; stroke-linecap: butt; stroke-dashoffset: 0; stroke-linejoin: miter; stroke-miterlimit: 4; fill: rgb(255,255,255); fill-rule: nonzero; opacity: 1; visibility: hidden;" vector-effect="non-scaling-stroke"  x="-540" y="-540" rx="0" ry="0" width="1080" height="1080" />
</g>
<g transform="matrix(1 0 0 1 540 540)" id="85d93c8e-2e1b-46c1-bcb8-d99da490df8b"  >
</g>
<g transform="matrix(1.84 0 0 1.84 552.05 527.95)"  >
<g style="" vector-effect="non-scaling-stroke"   >
		<g transform="matrix(1 0 0 1 0 0)"  >
<path style="stroke: none; stroke-width: 1; stroke-dasharray: none; stroke-linecap: butt; stroke-dashoffset: 0; stroke-linejoin: miter; stroke-miterlimit: 4; fill: rgb(21,94,117); fill-rule: nonzero; opacity: 1;" vector-effect="non-scaling-stroke"  transform=" translate(-226.49, -226.49)" d="M 404.344 0 L 48.642 0 C 21.894 0 0 21.873 0 48.664 L 0 404.34499999999997 C 0 431.07099999999997 21.894 452.98699999999997 48.642 452.98699999999997 L 404.344 452.98699999999997 C 431.07 452.98699999999997 452.986 431.07099999999997 452.986 404.34499999999997 L 452.986 48.664 C 452.986 21.873 431.07 0 404.344 0 z M 148.429 33.629 L 304.472 33.629 L 304.472 73.96600000000001 L 148.429 73.96600000000001 L 148.429 33.629 z M 410.902 406.372 L 42.041 406.372 L 42.041 112.49200000000002 L 410.901 112.49200000000002 L 410.901 406.372 z" stroke-linecap="round" />
</g>
		<g transform="matrix(1 0 0 1 -122.9 44.07)"  >
<rect style="stroke: none; stroke-width: 1; stroke-dasharray: none; stroke-linecap: butt; stroke-dashoffset: 0; stroke-linejoin: miter; stroke-miterlimit: 4; fill: rgb(21,94,117); fill-rule: nonzero; opacity: 1;" vector-effect="non-scaling-stroke"  x="-24.321" y="-24.332" rx="0" ry="0" width="48.642" height="48.664" />
</g>
		<g transform="matrix(1 0 0 1 -122.9 121.09)"  >
<rect style="stroke: none; stroke-width: 1; stroke-dasharray: none; stroke-linecap: butt; stroke-dashoffset: 0; stroke-linejoin: miter; stroke-miterlimit: 4; fill: rgb(21,94,117); fill-rule: nonzero; opacity: 1;" vector-effect="non-scaling-stroke"  x="-24.321" y="-24.321" rx="0" ry="0" width="48.642" height="48.642" />
</g>
		<g transform="matrix(1 0 0 1 -41.33 -32.95)"  >
<rect style="stroke: none; stroke-width: 1; stroke-dasharray: none; stroke-linecap: butt; stroke-dashoffset: 0; stroke-linejoin: miter; stroke-miterlimit: 4; fill: rgb(21,94,117); fill-rule: nonzero; opacity: 1;" vector-effect="non-scaling-stroke"  x="-24.3105" y="-24.321" rx="0" ry="0" width="48.621" height="48.642" />
</g>
		<g transform="matrix(1 0 0 1 -41.33 44.07)"  >
<rect style="stroke: none; stroke-width: 1; stroke-dasharray: none; stroke-linecap: butt; stroke-dashoffset: 0; stroke-linejoin: miter; stroke-miterlimit: 4; fill: rgb(21,94,117); fill-rule: nonzero; opacity: 1;" vector-effect="non-scaling-stroke"  x="-24.3105" y="-24.332" rx="0" ry="0" width="48.621" height="48.664" />
</g>
		<g transform="matrix(1 0 0 1 -41.33 121.09)"  >
<rect style="stroke: none; stroke-width: 1; stroke-dasharray: none; stroke-linecap: butt; stroke-dashoffset: 0; stroke-linejoin: miter; stroke-miterlimit: 4; fill: rgb(21,94,117); fill-rule: nonzero; opacity: 1;" vector-effect="non-scaling-stroke"  x="-24.3105" y="-24.321" rx="0" ry="0" width="48.621" height="48.642" />
</g>
		<g transform="matrix(1 0 0 1 40.21 -32.95)"  >
<rect style="stroke: none; stroke-width: 1; stroke-dasharray: none; stroke-linecap: butt; stroke-dashoffset: 0; stroke-linejoin: miter; stroke-miterlimit: 4; fill: rgb(21,94,117); fill-rule: nonzero; opacity: 1;" vector-effect="non-scaling-stroke"  x="-24.332" y="-24.321" rx="0" ry="0" width="48.664" height="48.642" />
</g>
		<g transform="matrix(1 0 0 1 40.21 44.07)"  >
<rect style="stroke: none; stroke-width: 1; stroke-dasharray: none; stroke-linecap: butt; stroke-dashoffset: 0; stroke-linejoin: miter; stroke-miterlimit: 4; fill: rgb(21,94,117); fill-rule: nonzero; opacity: 1;" vector-effect="non-scaling-stroke"  x="-24.332" y="-24.332" rx="0" ry="0" width="48.664" height="48.664" />
</g>
		<g transform="matrix(1 0 0 1 40.21 121.09)"  >
<rect style="stroke: none; stroke-width: 1; stroke-dasharray: none; stroke-linecap: butt; stroke-dashoffset: 0; stroke-linejoin: miter; stroke-miterlimit: 4; fill: rgb(21,94,117); fill-rule: nonzero; opacity: 1;" vector-effect="non-scaling-stroke"  x="-24.332" y="-24.321" rx="0" ry="0" width="48.664" height="48.642" />
</g>
		<g transform="matrix(1 0 0 1 121.75 -32.95)"  >
<rect style="stroke: none; stroke-width: 1; stroke-dasharray: none; stroke-linecap: butt; stroke-dashoffset: 0; stroke-linejoin: miter; stroke-miterlimit: 4; fill: rgb(21,94,117); fill-rule: nonzero; opacity: 1;" vector-effect="non-scaling-stroke"  x="-24.332" y="-24.321" rx="0" ry="0" width="48.664" height="48.642" />
</g>
		<g transform="matrix(1 0 0 1 121.75 44.07)"  >
<rect style="stroke: none; stroke-width: 1; stroke-dasharray: none; stroke-linecap: butt; stroke-dashoffset: 0; stroke-linejoin: miter; stroke-miterlimit: 4; fill: rgb(21,94,117); fill-rule: nonzero; opacity: 1;" vector-effect="non-scaling-stroke"  x="-24.332" y="-24.332" rx="0" ry="0" width="48.664" height="48.664" />
</g>
</g>
</g>
<g transform="matrix(NaN NaN NaN NaN 0 0)"  >
<g style=""   >
</g>
</g>
<g transform="matrix(NaN NaN NaN NaN 0 0)"  >
<g style=""   >
</g>
</g>
<g transform="matrix(NaN NaN NaN NaN 0 0)"  >
<g style=""   >
</g>
</g>
</svg>